<svg xmlns="http://www.w3.org/2000/svg" width="274" height="558" viewBox="0 0 274 558" fill="none">
<path d="M198.156 264.893C196.259 247.11 181.196 233.253 162.894 233.253C144.592 233.253 129.53 247.11 127.632 264.893L198.156 264.893Z" fill="#FB8A8A"/>
<path d="M198.156 264.893C196.259 247.11 181.196 233.253 162.894 233.253C144.592 233.253 129.53 247.11 127.632 264.893L198.156 264.893Z" fill="#F9CAC6"/>
<path d="M42.554 232.325C48.6679 237.33 56.4889 240.336 65.0166 240.336C84.6048 240.336 100.485 224.473 100.485 204.905C100.485 196.386 97.4757 188.573 92.4655 182.465L42.554 232.325Z" fill="#FB8A8A"/>
<path d="M42.554 232.325C48.6679 237.33 56.4889 240.336 65.0166 240.336C84.6048 240.336 100.485 224.473 100.485 204.905C100.485 196.386 97.4757 188.573 92.4655 182.465L42.554 232.325Z" fill="#F9CAC6"/>
<path d="M135.176 436.436L169.295 470.52C215.697 421.382 244.44 355.436 245.408 282.788L197.164 282.788C196.251 340.342 174.384 394.461 135.176 436.436Z" fill="#FFF7F7"/>
<path d="M124.123 121.009C84.2475 81.1835 31.9778 58.2524 -24 55.8014L-24 269.843L124.552 121.446C124.401 121.303 124.266 121.152 124.123 121.009Z" fill="#F9CAC6"/>
<path d="M189.581 282.787L-18.6325 282.787L129.808 431.073C167.579 390.533 188.66 338.31 189.581 282.787Z" fill="#F9CAC6"/>
<path d="M19.5351 260.926L158.257 122.349C175.407 141.441 188.906 163.039 198.41 186.613C207.938 210.234 213.202 235.211 214.092 260.926L19.5351 260.926ZM9.95142 264.892L218.165 264.892C217.244 209.369 196.163 157.146 158.392 116.606L9.95142 264.892Z" fill="white"/>
<path opacity="0.55" d="M99.0565 282.785C100.954 300.568 116.017 314.425 134.318 314.425C152.62 314.425 167.683 300.568 169.581 282.785L99.0565 282.785Z" fill="#FB8A8A"/>
<path d="M124.123 436.983C124.266 436.84 124.409 436.689 124.552 436.546L-24 288.149L-24 502.191C31.9778 499.74 84.2475 476.809 124.123 436.983Z" fill="#F9CAC6"/>
<path opacity="0.55" d="M225.756 264.893L274 264.893C273.031 192.245 244.28 126.292 197.886 77.1617L163.767 111.245C202.968 153.22 224.835 207.34 225.756 264.893Z" fill="#F3B8B3"/>
<path opacity="0.55" d="M-23.8412 152.021C-4.25295 152.021 11.6273 136.157 11.6273 116.589C11.6273 97.0215 -4.25295 81.1577 -23.8412 81.1577C-23.8968 81.1577 -23.9444 81.1577 -24 81.1657L-24 152.013C-23.9444 152.021 -23.8968 152.021 -23.8412 152.021Z" fill="#FB8A8A"/>
<path opacity="0.55" d="M44.3169 385.617C44.3169 405.185 60.1971 421.048 79.7854 421.048C87.9954 421.048 95.5465 418.256 101.557 413.577L51.7965 363.868C47.1118 369.872 44.3169 377.415 44.3169 385.617Z" fill="#FB8A8A"/>
<path opacity="0.55" d="M107.013 408.3C112.15 402.152 115.246 394.244 115.246 385.607C115.246 366.039 99.3662 350.175 79.7779 350.175C71.1312 350.175 63.2149 353.268 57.0613 358.4L107.013 408.3Z" fill="#FB8A8A"/>
<path opacity="0.55" d="M-24 369.388L-24 439.91C-6.01565 438.197 8.05422 423.063 8.05422 404.645C8.05422 386.227 -6.01565 371.101 -24 369.388Z" fill="#FB8A8A"/>
<path opacity="0.55" d="M0.963867 215.225C0.963867 223.545 3.83819 231.184 8.64989 237.228L58.4661 187.463C52.4158 182.665 44.7615 179.785 36.4403 179.785C16.8441 179.793 0.963866 195.657 0.963867 215.225Z" fill="#FB8A8A"/>
<path d="M-24 48.2101C34.0025 50.6689 88.1858 74.3853 129.49 115.647C129.633 115.79 129.776 115.94 129.919 116.083L164.022 82.0157C115.603 33.4488 49.4063 2.58591 -24 0.00012207L-24 48.2101Z" fill="#FFF7F7"/>
<path d="M129.49 442.345C88.1858 483.607 34.0025 507.323 -24 509.782L-24 558C49.4063 555.414 115.603 524.551 164.014 475.976L129.911 441.909C129.768 442.052 129.633 442.203 129.49 442.345Z" fill="#FFF7F7"/>
</svg>